<?xml version="1.0" standalone="no"?><!DOCTYPE svg PUBLIC "-//W3C//DTD SVG 1.1//EN" "http://www.w3.org/Graphics/SVG/1.1/DTD/svg11.dtd"><svg t="1731417206968" class="icon" viewBox="0 0 1024 1024" version="1.1" xmlns="http://www.w3.org/2000/svg" p-id="4447" xmlns:xlink="http://www.w3.org/1999/xlink" width="200" height="200"><path d="M384 64H160c-19.2 0-32 12.8-32 32V320c0 6.4 6.4 12.8 12.8 12.8H192c6.4 0 12.8-6.4 12.8-12.8V140.8H384c6.4 0 12.8-6.4 12.8-12.8v-51.2c0-6.4-6.4-12.8-12.8-12.8z m0 768H204.8v-179.2c0-6.4-6.4-12.8-12.8-12.8h-51.2c-6.4 0-12.8 6.4-12.8 12.8v224c0 19.2 12.8 32 32 32H384c6.4 0 12.8-6.4 12.8-12.8v-51.2c0-6.4-6.4-12.8-12.8-12.8z m499.2-768h-224c-12.8 0-19.2 6.4-19.2 12.8V128c0 6.4 6.4 12.8 12.8 12.8H832V320c0 6.4 6.4 12.8 12.8 12.8h51.2c6.4 0 12.8-6.4 12.8-12.8V96c0-19.2-12.8-32-25.6-32z" p-id="4448"></path><path d="M249.6 505.6c0 25.6-6.4 51.2-19.2 64-12.8 12.8-32 25.6-51.2 25.6-12.8 0-19.2 0-32-6.4v-44.8c6.4 6.4 19.2 6.4 25.6 6.4 19.2 0 32-19.2 32-51.2v-128h44.8v134.4zM288 537.6c12.8 12.8 32 19.2 57.6 19.2 12.8 0 19.2 0 25.6-6.4 6.4-6.4 6.4-6.4 6.4-19.2 0-6.4 0-12.8-6.4-12.8s-12.8-12.8-38.4-19.2c-32-12.8-44.8-32-44.8-64 0-19.2 6.4-32 19.2-44.8 12.8-6.4 32-12.8 57.6-12.8 19.2 0 38.4 0 51.2 6.4v44.8c-12.8-12.8-25.6-19.2-44.8-19.2-12.8 0-19.2 0-25.6 6.4-12.8 6.4-12.8 12.8-12.8 19.2 0 6.4 0 12.8 6.4 12.8s12.8 12.8 32 19.2c19.2 6.4 32 19.2 44.8 25.6 6.4 12.8 12.8 19.2 12.8 38.4s-6.4 38.4-19.2 44.8c-19.2 12.8-38.4 19.2-64 19.2s-44.8-6.4-57.6-12.8v-44.8zM550.4 377.6c32 0 51.2 12.8 70.4 32 19.2 19.2 25.6 44.8 25.6 76.8s-6.4 57.6-25.6 76.8c-12.8 19.2-38.4 32-70.4 32-32 0-51.2-12.8-70.4-32-19.2-19.2-32-44.8-32-76.8s6.4-57.6 25.6-76.8 51.2-32 76.8-32z m0 38.4c-12.8 0-32 6.4-38.4 19.2-12.8 12.8-19.2 32-19.2 51.2 0 19.2 6.4 38.4 12.8 51.2 12.8 12.8 25.6 19.2 38.4 19.2 19.2 0 32-6.4 38.4-19.2s12.8-32 12.8-51.2c0-19.2-6.4-38.4-12.8-51.2 0-12.8-12.8-19.2-32-19.2zM825.6 588.8l-89.6-134.4c-6.4-6.4-6.4-12.8-12.8-19.2v153.6h-44.8V377.6h51.2l83.2 128c12.8 12.8 19.2 19.2 19.2 25.6V377.6h44.8v211.2h-51.2z" p-id="4449"></path><path d="M640 652.8c6.4-6.4 12.8 0 12.8 6.4v76.8h249.6c6.4 0 6.4 6.4 6.4 6.4v57.6c0 6.4-6.4 6.4-6.4 6.4h-249.6v76.8c0 6.4-6.4 12.8-12.8 6.4l-140.8-115.2c-6.4-6.4-6.4-6.4 0-12.8l140.8-108.8z" p-id="4450"></path></svg>